<?xml version="1.0" encoding="utf-8"?>
<!-- Generator: Adobe Illustrator 17.0.0, SVG Export Plug-In . SVG Version: 6.00 Build 0)  -->
<!DOCTYPE svg PUBLIC "-//W3C//DTD SVG 1.1//EN" "http://www.w3.org/Graphics/SVG/1.1/DTD/svg11.dtd">
<svg version="1.1" id="Layer_1" xmlns="http://www.w3.org/2000/svg" xmlns:xlink="http://www.w3.org/1999/xlink" x="0px" y="0px"
	 width="188.984px" height="185.28px" viewBox="83.418 119.794 188.984 185.28"
	 enable-background="new 83.418 119.794 188.984 185.28" xml:space="preserve">
<g>
	<path id="path3_1_" d="M219.272,221.942l-4.622-2.108c-0.089-0.413-0.183-0.824-0.281-1.233l3.246-3.903
		c0.33-0.397,0.432-0.935,0.267-1.422c-0.162-0.49-0.567-0.858-1.069-0.976l-4.931-1.162c-0.17-0.393-0.345-0.782-0.523-1.168
		l2.418-4.452c0.247-0.453,0.24-1-0.016-1.448c-0.255-0.446-0.724-0.729-1.239-0.748l-5.067-0.176
		c-0.241-0.352-0.489-0.697-0.739-1.039l1.504-4.844c0.154-0.493,0.042-1.03-0.297-1.417c-0.338-0.389-0.85-0.577-1.361-0.492
		l-5.016,0.816c-0.302-0.293-0.608-0.582-0.919-0.864l0.534-5.055c0.054-0.513-0.16-1.016-0.569-1.332
		c-0.406-0.315-0.947-0.398-1.431-0.217l-4.759,1.78c-0.352-0.229-0.709-0.454-1.069-0.673l-0.464-5.061
		c-0.045-0.513-0.356-0.966-0.817-1.194c-0.462-0.231-1.007-0.205-1.445,0.066l-4.312,2.669c-0.395-0.156-0.792-0.31-1.191-0.456
		l-1.441-4.862c-0.146-0.493-0.538-0.877-1.034-1.012c-0.496-0.136-1.028-0.004-1.405,0.347l-3.708,3.455
		c-0.418-0.077-0.837-0.148-1.26-0.213l-2.359-4.485c-0.239-0.457-0.698-0.757-1.213-0.792c-0.514-0.035-1.008,0.198-1.309,0.614
		l-2.966,4.122c-0.42,0.007-0.843,0.018-1.264,0.037l-3.198-3.949c-0.323-0.4-0.832-0.604-1.343-0.539
		c-0.511,0.065-0.952,0.39-1.164,0.858l-2.108,4.623c-0.413,0.087-0.825,0.182-1.234,0.281l-3.904-3.249
		c-0.396-0.328-0.934-0.429-1.421-0.267c-0.489,0.164-0.858,0.568-0.976,1.07l-1.162,4.932c-0.393,0.169-0.781,0.344-1.167,0.522
		l-4.454-2.418c-0.453-0.247-1.001-0.241-1.448,0.016c-0.446,0.255-0.73,0.725-0.748,1.239l-0.178,5.068
		c-0.35,0.242-0.695,0.489-1.039,0.74l-4.843-1.505c-0.492-0.153-1.029-0.041-1.416,0.298c-0.389,0.337-0.576,0.853-0.492,1.361
		l0.816,5.016c-0.293,0.302-0.582,0.609-0.866,0.919l-5.053-0.533c-0.513-0.053-1.017,0.162-1.332,0.569
		c-0.317,0.408-0.398,0.948-0.217,1.432l1.78,4.76c-0.228,0.352-0.452,0.708-0.671,1.066l-5.06,0.465
		c-0.51,0.05-0.965,0.356-1.194,0.817c-0.231,0.459-0.205,1.007,0.066,1.446l2.669,4.313c-0.156,0.393-0.31,0.79-0.456,1.191
		l-4.861,1.439c-0.494,0.146-0.876,0.538-1.012,1.034c-0.135,0.498-0.003,1.029,0.347,1.406l3.455,3.705
		c-0.077,0.419-0.149,0.839-0.214,1.262l-4.485,2.359c-0.455,0.239-0.755,0.697-0.79,1.212c-0.036,0.514,0.197,1.009,0.615,1.31
		l4.12,2.967c0.007,0.42,0.019,0.843,0.037,1.264l-3.948,3.197c-0.4,0.323-0.604,0.831-0.539,1.343
		c0.065,0.512,0.39,0.952,0.858,1.164l4.622,2.108c0.088,0.413,0.182,0.824,0.281,1.233l-3.247,3.904
		c-0.329,0.396-0.43,0.934-0.267,1.421c0.163,0.49,0.568,0.857,1.069,0.976l4.932,1.162c0.169,0.393,0.344,0.782,0.523,1.168
		l-2.418,4.453c-0.246,0.453-0.24,1.001,0.015,1.447c0.256,0.448,0.725,0.731,1.24,0.748l5.066,0.177
		c0.242,0.352,0.488,0.697,0.74,1.041l-1.505,4.842c-0.153,0.492-0.041,1.028,0.298,1.417c0.339,0.39,0.855,0.577,1.361,0.492
		l5.014-0.817c0.304,0.294,0.609,0.582,0.919,0.866l-0.532,5.055c-0.054,0.512,0.16,1.013,0.568,1.329
		c0.406,0.318,0.948,0.397,1.432,0.216l4.76-1.779c0.353,0.231,0.71,0.453,1.068,0.671l0.465,5.061
		c0.045,0.513,0.356,0.965,0.817,1.195c0.459,0.23,1.007,0.204,1.445-0.068l4.313-2.668c0.395,0.158,0.791,0.31,1.191,0.456
		l1.44,4.859c0.146,0.495,0.538,0.879,1.035,1.013c0.496,0.136,1.029,0.004,1.406-0.346l3.705-3.457
		c0.419,0.077,0.84,0.15,1.262,0.215l2.359,4.483c0.239,0.455,0.698,0.757,1.212,0.79c0.514,0.038,1.009-0.196,1.309-0.614
		l2.967-4.12c0.421-0.005,0.843-0.018,1.265-0.034l3.197,3.948c0.322,0.398,0.831,0.604,1.342,0.539
		c0.511-0.065,0.952-0.391,1.165-0.858l2.108-4.622c0.413-0.09,0.824-0.183,1.232-0.284l3.903,3.247
		c0.396,0.33,0.934,0.432,1.421,0.267c0.49-0.162,0.858-0.568,0.976-1.069l1.162-4.93c0.393-0.169,0.782-0.345,1.168-0.524
		l4.453,2.42c0.452,0.245,1.001,0.239,1.447-0.016c0.447-0.254,0.73-0.725,0.748-1.24l0.179-5.065
		c0.35-0.242,0.695-0.491,1.039-0.74l4.843,1.504c0.492,0.153,1.028,0.042,1.416-0.296c0.389-0.339,0.575-0.853,0.492-1.362
		l-0.816-5.017c0.293-0.302,0.582-0.605,0.866-0.917l5.053,0.532c0.513,0.054,1.017-0.158,1.331-0.568
		c0.317-0.408,0.398-0.946,0.218-1.429l-1.78-4.761c0.229-0.353,0.453-0.708,0.671-1.068l5.061-0.464
		c0.511-0.044,0.965-0.355,1.194-0.817c0.231-0.461,0.206-1.008-0.067-1.446l-2.668-4.312c0.157-0.396,0.31-0.792,0.455-1.193
		l4.861-1.439c0.495-0.145,0.877-0.537,1.012-1.034c0.135-0.496,0.005-1.027-0.347-1.405l-3.455-3.706
		c0.076-0.419,0.148-0.839,0.214-1.262l4.484-2.359c0.456-0.24,0.757-0.698,0.79-1.212c0.038-0.514-0.196-1.009-0.614-1.309
		l-4.119-2.968c-0.008-0.42-0.02-0.843-0.037-1.264l3.948-3.197c0.4-0.322,0.604-0.831,0.539-1.342
		C220.064,222.596,219.74,222.155,219.272,221.942L219.272,221.942z M195.111,261.137c-1.681-0.145-2.927-1.626-2.785-3.312
		c0.142-1.684,1.621-2.932,3.301-2.787c1.681,0.142,2.929,1.625,2.786,3.309C198.271,260.029,196.791,261.279,195.111,261.137z
		 M192.403,251.474c-1.534-0.13-2.882,1.007-3.011,2.543l-0.619,7.293c-4.424,2.728-9.487,4.575-14.978,5.273
		c-5.616,0.714-11.101,0.149-16.162-1.465l-2.423-6.906c-0.51-1.453-2.1-2.219-3.551-1.708l-6.097,2.143
		c-1.316-1.05-2.56-2.188-3.726-3.408l30.498-3.877c0.345-0.044,0.567-0.136,0.528-0.45l-1.372-10.788
		c-0.04-0.314-0.278-0.347-0.623-0.303l-8.92,1.134l-0.869-6.838l9.647-1.226c0.881-0.112,4.74-0.347,6.586,4.39
		c0.575,1.456,2.038,6.244,2.813,7.738c0.797,1.684,3.578,4.899,6.066,4.582l15.197-1.932c0.173-0.022,0.354-0.065,0.544-0.125
		c-0.872,1.567-1.856,3.069-2.941,4.494L192.403,251.474L192.403,251.474z M151.455,266.536c-1.592,0.561-3.335-0.278-3.896-1.872
		c-0.559-1.598,0.277-3.342,1.868-3.903c1.592-0.558,3.337,0.28,3.896,1.875C153.882,264.23,153.046,265.977,151.455,266.536z
		 M133.921,221.093c0.874,1.446,0.411,3.329-1.033,4.201c-1.444,0.874-3.322,0.41-4.196-1.036c-0.874-1.447-0.411-3.327,1.033-4.201
		C131.17,219.183,133.048,219.646,133.921,221.093z M131.437,229.974l6.16-3.731c1.316-0.797,1.738-2.511,0.941-3.83l-1.731-2.87
		l5.289-0.672l3.031,23.839l-10.67,1.357c-1.339-3.136-2.272-6.506-2.723-10.055C131.561,232.656,131.464,231.308,131.437,229.974z
		 M159.795,224.016l-0.893-7.027l12.594-1.601c0.65-0.083,4.689,0.168,5.064,3.116c0.311,2.448-2.601,3.71-5.088,4.026
		L159.795,224.016L159.795,224.016z M206.369,224.522c0.119,0.932,0.202,1.859,0.25,2.784l-3.829,0.487
		c-0.383,0.049-0.505,0.32-0.458,0.695l0.224,1.758c0.526,4.139-1.693,5.336-3.709,5.825c-1.92,0.467-4.21-0.293-4.628-1.451
		c-1.97-6.316-4.06-7.452-7.387-9.453c3.449-2.859,6.906-6.871,6.308-11.575c-0.646-5.08-4.535-7.837-7.108-9.104
		c-3.61-1.772-7.353-1.743-8.348-1.616l-39.598,5.034c4.608-6.675,11.345-11.846,19.38-14.437l5.29,4.303
		c1.196,0.971,2.949,0.79,3.918-0.407l4.587-5.659c11.202,0.646,21.333,6.28,27.861,14.947l-2.549,8.53
		c-0.44,1.476,0.398,3.03,1.87,3.473l7.272,2.182C205.991,222.044,206.21,223.271,206.369,224.522L206.369,224.522z
		 M161.607,188.709c1.062-1.312,2.986-1.51,4.298-0.446c1.31,1.067,1.51,2.993,0.445,4.305c-1.062,1.312-2.986,1.511-4.298,0.445
		C160.743,191.948,160.543,190.022,161.607,188.709z M200.716,212.751c0.483-1.618,2.186-2.537,3.802-2.052
		c1.616,0.484,2.535,2.191,2.051,3.809c-0.483,1.619-2.186,2.538-3.803,2.053C201.151,216.077,200.233,214.371,200.716,212.751z"/>
</g>
<path d="M270.799,268.851c1.317-0.778,1.894-2.463,1.46-4.006c-23.279-74.808-70.649-116.093-117.992-144.57
	c-1.467-0.864-3.36-0.521-4.418,0.696c-51.093,58.106-70.724,128.946-65.66,175.269c0.212,1.515,1.273,2.733,2.764,3.06
	C185.406,319.133,248.385,282.615,270.799,268.851z M115.876,247.775c-10.49-30.02,5.106-62.693,34.748-73.051
	c29.643-10.358,62.193,5.492,72.682,35.512s-5.106,62.693-34.748,73.051C158.916,293.645,126.366,277.795,115.876,247.775z"/>
</svg>
